<svg width="449" height="430" viewBox="0 0 449 430" fill="none" xmlns="http://www.w3.org/2000/svg">
<path d="M200.05 86H218.01C223.181 95.5134 227.474 105.263 231.667 115.204L233.828 120.302C239.475 133.687 244.937 147.136 250.283 160.633C251.127 162.761 251.981 164.883 252.845 167C255.458 173.406 258.16 179.771 260.946 186.118C264.031 193.211 267.002 200.347 269.972 207.484L269.973 207.485L270.464 208.665C271.644 211.5 272.827 214.335 274.009 217.169C277.37 225.224 280.726 233.281 284.068 241.343C290.267 256.277 296.653 271.133 303.093 285.972C308.678 298.848 314.122 311.763 319.327 324.784C320.94 328.816 323.312 334.442 325 338.445C325 338.445 319.02 338.444 315.238 338.439L311.41 338.445L307.201 338.429L302.776 338.43C297.934 338.429 293.091 338.418 288.248 338.407C284.897 338.404 281.546 338.402 278.194 338.401C269.361 338.395 260.528 338.381 251.695 338.365C243.408 338.352 235.122 338.345 226.835 338.338L226.78 338.338L224.669 338.337C206.984 338.321 189.299 338.297 171.613 338.267C172.064 336.22 178.04 317.308 178.5 315.263C189 315.171 188.665 315.253 194 315.263C196.876 315.264 197.432 315.171 200.366 315.171C202.451 315.178 204.536 315.186 206.621 315.193C208.76 315.196 210.899 315.198 213.038 315.2C218.658 315.205 224.278 315.219 229.897 315.235C235.19 315.248 240.483 315.255 245.775 315.262L247.113 315.263C258.365 315.279 269.618 315.303 280.87 315.333C271.669 292.187 262.463 269.044 252.995 245.996L251.019 241.165C247.857 233.455 244.66 225.762 241.377 218.098C239.788 214.383 238.216 210.662 236.645 206.939C235.527 204.307 234.383 201.685 233.239 199.063L231.217 194.261C230.616 192.866 230 192 228.25 188.096C226.5 184.193 226 185.282 227 184.386C231.974 179.93 249.052 169.421 252.845 167L221.003 166.267L220.992 166.241L220.99 166.237C216.7 156.502 216.699 156.499 215.362 153.446C213.52 149.297 211 142.5 209 138.5L198.553 166.267L166.008 167C172.346 172.35 184.172 179.383 190.848 184.386C189.778 187.119 184.057 201.945 183.155 204.036L181.061 208.819C179.566 212.278 178.074 215.738 176.583 219.199L175.386 221.971C172.263 229.216 169.207 236.486 166.176 243.767L164.789 247.101C162.975 251.462 161.163 255.823 159.355 260.185C154.959 270.785 150.518 281.352 145.784 291.818C142.877 298.258 140.182 304.654 137.845 311.302C134.651 320.09 130.867 328.424 126.713 336.833H95C95.4417 335.786 103.574 315.132 104.029 314.053C105.439 310.714 106.862 307.38 108.286 304.046C110.136 299.692 111.98 295.335 113.822 290.978L115.207 287.712C118.247 280.506 121.131 273.255 123.936 265.962C126.901 258.263 130.192 250.797 133.821 243.365C137.204 236.14 140.063 228.717 142.994 221.316C149.825 204.082 157.035 187.058 164.628 170.118C165.092 169.079 165.552 168.039 166.008 167C169.596 158.811 172.922 150.603 175.912 142.17C177.487 137.907 179.208 133.759 181.044 129.593L183.028 125.072L185.083 120.4C186.42 117.332 187.755 114.264 189.088 111.195L200.05 86Z" fill="#FEFEFE"/>
</svg>
